<svg id="Capa_1" data-name="Capa 1" xmlns="http://www.w3.org/2000/svg" viewBox="0 0 521.23 199.14"><defs><style>.cls-1{fill:#6fb01d;}.cls-2{fill:#77b41d;}</style></defs><path class="cls-1" d="M504,33.24a.7.7,0,0,0,.39.4.75.75,0,0,0,.29.06.67.67,0,0,0,.28-.06.69.69,0,0,0,.4-.4.74.74,0,0,0,0-.56.69.69,0,0,0-.4-.4.71.71,0,0,0-.28-.06.75.75,0,0,0-.29.06.71.71,0,0,0-.39.4.72.72,0,0,0,0,.52Z" transform="translate(-5.81 -13.54)"/><path class="cls-2" d="M62.32,91.37a62.66,62.66,0,0,0-2.23,15.53c0,7,2.95,10.43,7.12,10.43,7.37,0,13.15-13.63,13.15-15.84a1,1,0,0,0-.86-1c-3.57,3.56-6.39,7.86-8.85,7.86-1.35,0-2.7-1.23-2.7-3.81,0-19.28,19.9-51.21,25.67-51.21,1.23-1-3-6.76-6-6.76-3.86,0-15.31,16.5-22.16,34.94-5,5.06-28.54,32.86-44.28,32.86-3.93,0-6.51-2.21-6.51-5.53,0-9.7,16.83-24.81,27.76-24.81,1.11.12,7.37-7.12,1.72-7.37H44c-6.64,0-19.78-2.45-19.78-10.44,0-8.72,16.71-24.19,32.92-24.19a25.06,25.06,0,0,1,4.3.37c2,.36,2.94,1.72,2.58,3.43-.86,4.43-6.64,9.71-6.64,11.43a1.58,1.58,0,0,0,1.23.49c3.81,0,11.67-8,11.67-13.14,0-7.62-4.54-10.94-12.9-10.94-17.56,0-41.14,13.76-41.14,31.82,0,6.38,5.28,12.28,10.07,15.72C15.39,86.51,5.81,96.09,5.81,108.12c0,9.71,6.51,15.85,15.11,15.85C36.81,124,53.82,103.73,62.32,91.37Z" transform="translate(-5.81 -13.54)"/><path class="cls-2" d="M173.54,26.29a1.19,1.19,0,0,1,1.17,1.32c0,10.12-27.41,68.76-27.41,71.1s3.37,6.45,6,6.45l.29-.29c.3,0,.59,0,.59-.15a1.08,1.08,0,0,1,.15-.58c.87-1.18,2.19-3.37,3.95-6.45,10-13.49,35.48-40.17,40-40.17.74,0,1.18.29,1.18,1.17,0,11.58-10,29.18-10,44.13,0,5,1.32,12,8.94,12.17,6.26.06,13.33-8,19.18-17.14-.08,1-.13,2-.13,2.92,0,5.42,2.19,11,7.91,11,6.31,0,15.54-12.46,22.58-24.19-2.49,8.65-4,17.74-4,23.31,0,2.35.73,9.24,8.36,9.24,5.51,0,12.5-9.16,18.5-19.29a52.67,52.67,0,0,0-1.8,12c0,4.39,4.69,7.18,6.16,7.18.73,0,.88-.44.88-1v-.44c2.05-7.33,22.43-36.35,27.85-36.35.73,0,1,.29,1,1.17,0,2.49-3.37,12.75-3.37,20.08,0,2.35.73,9.24,8.35,9.24,6,0,13.62-8.87,19.77-18.09a29.26,29.26,0,0,0-.28,3.87c0,5.86,2.79,10.7,6.75,10.7,6.59,0,13.63-8.06,19.49-17.88a92.74,92.74,0,0,0-2.63,20.52c0,6.6,2.78,11.73,8.5,11.73,6.35,0,14-10.68,20.4-22.09.94,8.32,5.84,10.95,9.79,10.95,9.68,0,18.91-9.68,23.6-21,10.41-1.76,14.22-10.84,10.85-10.84-2.2,0-2.49,2.34-8.35,3.07a38.13,38.13,0,0,0,.73-7c0-5.87-2.2-12.17-10.85-12.17s-17.12,8.45-21.9,18.28c-7.16,11.63-17.4,28.92-21.34,28.92-.73,0-2-.29-2-3.37,0-26.68,27.7-72.42,34.6-72.42,1.46-1.17-3.38-8.06-7-8.06-3.81,0-15,15-23.9,34.45l-2.05,3.37a9.43,9.43,0,0,0-8.5-4.84c-7.41,0-14.33,6.65-19.17,15-5.6,7.55-19,26.33-23.63,26.33-.73,0-1.32-.88-1.32-2,0-5.57,5.13-16,5.13-22,0-3.81-2.2-6.59-6.45-6.59-9.09,0-19.64,13.78-28.59,25.21,6.89-17.59,18.18-35.62,21-35.62,1.46-1.47-2.35-7-6.16-7-4.38,0-10.62,9.18-16,20.67-5.81,8.19-20.12,34.89-25.17,34.89-.73,0-1.32-.88-1.32-2C253.86,94,266.91,69.1,269,69.1c1.47-1.47-2.34-7-6.16-7-2.19,0-4.25,1.91-6.3,4.84-4.4,4.84-22.28,34.16-27.71,34.16-.58,0-2-.15-2-3.23,0-8.5,6.6-22.13,10.26-25.5,1.18-1.18-2.49-4.84-4.83-4.84a1.66,1.66,0,0,0-1.18.44,29.68,29.68,0,0,0-5.71,7.34c-6.56,8.8-19.24,27.84-23.89,27.84-.73,0-1.32-.88-1.32-2,0-8.8,11.58-30,11.58-45.59,0-4.4-1.17-9.68-6.59-9.68-8.65,0-21.55,11.73-32.55,24.19,8.21-17.44,16-36.5,16-44.86,0-7.18-2.05-11.58-7.77-11.58-14.36,0-46,46.47-62.74,74.76,9.23-27,24.77-59.81,30.78-59.81,1.47-1.46-4.25-9.38-9.38-9.38-11.87,0-36.35,73-36.35,91.92,0,4.4,5.42,8.06,6.89,8.06.73,0,.88-.44.88-1v-.88C110.8,106.19,167.82,26.29,173.54,26.29ZM407.92,71.45a2.4,2.4,0,0,1,1.9.73c1.47,1.46,1.18,5,0,9.23a2.87,2.87,0,0,0-1.9-.87,4.21,4.21,0,0,0-4.11,4.25,6.12,6.12,0,0,0,2.64,5c-3.52,6.89-8.35,12.9-11.87,12.9-2.64,0-3.23-2.93-3.23-5.57C391.35,87.57,402.2,71.45,407.92,71.45Zm-50.57-2.79c2.34,0,3.08,1.91,3.22,3.52-6.45,11.43-15.24,26.24-20.08,26.24-1.17,0-1.61-1.32-1.61-2.35C338.88,83.91,351,68.66,357.35,68.66Z" transform="translate(-5.81 -13.54)"/><path class="cls-2" d="M107.1,164.27c-3.56,3.57-8,9.22-12.65,9.22-.62,0-1.11-.74-1.11-1.72,0-4.67,2.21-12,2.21-17.08,0-1.84-.24-4.79-3.8-4.79-7,0-17.08,10.44-24,19.29,4.66-12,11.91-23,14.12-23,1.23-1.23-2-5.9-5.16-5.9-2.94,0-6.82,5.45-10.31,12.64-4.94,5.91-17.33,21.75-25.42,21.75-.86,0-4.18-.73-4.18-5.89a15.89,15.89,0,0,1,.12-2.33c6.27-1,22.48-8.23,22.48-20.27,0-3.32-2-7.74-8.48-7.74-10.19,0-22.35,17.2-22.35,32.8,0,7.73,4.67,12,9.09,12,8.06,0,16.78-8.13,23.13-16.1-1.82,5.81-3,11.37-3,15.24,0,3.69,3.93,6,5.16,6,.61,0,.73-.37.73-.86v-.37c1.6-5.89,17.2-28.37,21.74-28.37.62,0,.86.25.86,1,0,2.09-1.23,8.6-1.23,14.74,0,2,.62,7.74,7,7.74,9.46,0,15.85-14.74,15.85-17.07A1,1,0,0,0,107.1,164.27ZM51.47,144.38a2,2,0,0,1,2.08,2.09c0,7-10.19,12.15-15.47,14.24C41,151.5,48,144.38,51.47,144.38Z" transform="translate(-5.81 -13.54)"/><path class="cls-2" d="M152.92,177.63c19.52-7.42,42.61-28.72,42.61-48.93,0-13-10-22.54-28.18-22.54-26.53,0-54,20.9-54,30.93,0,5.5,4.53,7.42,7.55,7.42,0-7.83,26.94-29.14,50.45-29.14,11.68,0,15.12,4.95,15.12,9.76,0,18-27.91,42.33-43.3,47,8.38-16.5,18.69-31.48,22.68-31.48,1.37-1.37-3.44-7.83-7-7.83-6.32,0-17.73,19.65-25.7,38.62-1.24.27-4.13,2.2-2.06,5.22-4,10.31-6.74,19.93-6.74,25.15,0,4.13,4.4,6.74,5.77,6.74.69,0,.83-.41.83-1,0-6.46,3.43-16.63,8.25-27.22h1a15.73,15.73,0,0,0,2.47-.13c8.8,5.49,25.43,17.59,38.07,32.29a.5.5,0,0,0,.41.14c1.79,0,6-7.69.28-14C176,192.48,166.25,185.33,152.92,177.63Z" transform="translate(-5.81 -13.54)"/><path class="cls-1" d="M398.09,169.39a1.15,1.15,0,0,0,.82-.28c1.51-1.92,6.32-5.5,6.32-7.83,0-4.95-4.81-7.29-8.93-7.29-6,0-11.7,1.53-13.69,6.74a11.85,11.85,0,0,1-1.53,2.93c-5.29,7.15-16,24.14-20.51,24.14-.69,0-1.92-.13-1.92-3,0-6.32,4-16.36,5.49-17.87,1.1-1.1-2.33-4.53-4.53-4.53-.28,0-1.38.41-1.38.68-2.61,2.07-12,14.57-17,17.46a3,3,0,0,1-1.65.55s-1.1-.14-1.1-1.92c0-11.41,12-25,18-25,3.71,0,1.48,5.47,4.78,4.58a3.38,3.38,0,0,0,2.34-3.87c-.59-3.25-3-7.58-8.91-7.58-8.11,0-15.44,7-20,15.68-6.58,7.74-27.15,34.76-31.92,34.76-.69,0-1.92-.27-1.92-3.16,0-11.41,6.18-27.76,13.33-41.65,4,.55,7.69,1.38,9.34,2.89a3.12,3.12,0,0,0,1.93,1c2.61,0,1.92-7.69-3.58-9.48a19.65,19.65,0,0,0-4.25-.83c6.45-11.4,12.91-19.79,15.8-19.79,1.37-1.1-3.3-7.56-6.73-7.56S314.26,130.9,306.15,147a33,33,0,0,0-7.7,1.79c-1.37.83-2.06,3.16,1.79,3.44.55,0,1.92.13,3.43.13-1.54,3.46-3,7.06-4.39,10.74-5.1,6-19.63,25-29,25-1,0-4.67-.83-4.67-6.6a18.52,18.52,0,0,1,.13-2.61c7-1.1,25.16-9.21,25.16-22.68,0-3.71-2.2-8.66-9.49-8.66-6.66,0-14.06,6.56-19.07,15.49-5.36,6.25-21.2,27.26-30.68,27.26-1,0-4.67-.83-4.67-6.6,0-13.61,12.23-27.35,16.77-27.35a1.59,1.59,0,0,1,1.1.41c1.65,1.51-5,11.41-4.54,11.82a1.76,1.76,0,0,0,1.37.55c3.3,0,9.63-5.22,9.63-10.72,0-2.75-1.24-8.24-8.53-8.24-6.51,0-13.73,6.14-18.74,14.65-6,7.27-19,23.28-27.57,23.28-1,0-4.67-.83-4.67-6.6a17.21,17.21,0,0,1,.14-2.61c7-1.1,25.15-9.21,25.15-22.68,0-3.71-2.2-8.66-9.49-8.66-11.4,0-25,19.25-25,36.7,0,8.66,5.22,13.47,10.17,13.47,8.89,0,18.5-8.84,25.58-17.64a37.15,37.15,0,0,0-.57,6.37c0,8.66,5.22,13.47,10.17,13.47,9.59,0,21.17-11.48,29-21.74a37.88,37.88,0,0,0-.52,6.07c0,8.66,5.22,13.47,10.17,13.47,10.21,0,21.37-11.66,28.55-21.53A86.93,86.93,0,0,0,292,197.84c0,6.6,2.61,11,8,11,8.09,0,21.4-17.87,30-31.41a31.24,31.24,0,0,0-.26,3.93c0,6.32,3,10,6.73,10,4.67,0,10.31-6,14.71-12.65a40.42,40.42,0,0,0-1.1,8.8c0,5.08,2.06,10.31,7.28,10.31,7.62,0,19.59-19.08,24.91-29.18.76,4.52,2.75,8.75,3.95,13.23-5.63,1.38-14.57,3.3-14.57,9.08,0,4.67,5.09,11,12.51,11,5.08,0,11-4.81,11-12.78a19.58,19.58,0,0,0-.41-4.12,16.69,16.69,0,0,1,4.12-.55c.83,0,1.52.27,2.07.27s.82-.41.82-2.06-1.79-2.61-4.12-2.61a32.45,32.45,0,0,0-3.85.41c-1.1-3.85-3-8.25-3-12.1,0-6.83,5.3-9.31,7.79-9.34a.84.84,0,0,1,.86.82c0,2.48-3.16,5.64-3.29,7.56A2,2,0,0,0,398.09,169.39ZM208.16,154.13a2.23,2.23,0,0,1,2.34,2.34c0,7.83-11.41,13.6-17.32,15.94C196.48,162.1,204.31,154.13,208.16,154.13Zm73.8,0a2.23,2.23,0,0,1,2.34,2.34c0,7.83-11.41,13.6-17.32,15.94C270.28,162.1,278.11,154.13,282,154.13Zm105.82,36.42c-.28,2.06-1.65,3.85-4.67,3.85-2.34,0-7-2.2-5.09-4,.83-.83,6.46-2.75,9.48-3.17A7.51,7.51,0,0,1,387.78,190.55Z" transform="translate(-5.81 -13.54)"/><path class="cls-2" d="M495.88,79.4l-2,5.36-.37,1c-.05.13-.11.23-.16.35A7.61,7.61,0,0,1,492,88.15c1.13,1.9,5.08,3.11,3.32,5.32.63.63,1.91,1.76,1.38,2.78-.66,1.27-2.18,0-2.6,1.67a4.11,4.11,0,0,0,4.23,4.94c2.87-.23,1.86-4.41,5-4A3.63,3.63,0,0,1,506,100.7c.69.92.83,2.62,2.06,2.82.32-.71-.1-1.39,0-2.1a8,8,0,0,1,2.74,3.08c.47,1.43-.08,3.16,2.3,2.11-.23-.32-.23-.9-.34-1.13a5.68,5.68,0,0,1,4.49,4.64c1.12,5.51-3.77.08-4.74,2.53-1.33-.85-1.67-2.19-2.75-3.23-.51-.49-1.67-.61-2-1.07-.51-.63-.13-1.43-.56-2-1.71-2.38-7.47-.81-9.79-.18-.63.16-1.22,0-1.75.54-.91.84-.08,1.34-.53,2.23-.64,1.27-2.57,1.42-3.39,2.36-2,2.25-.35,6.65-1.47,9.44-.62,1.55-2.8,2.82-2.49,4.33.13.66,1,1.41,1.19,2.19a20.52,20.52,0,0,0,.4,2.32,80.77,80.77,0,0,0,3.65,7.72,3.89,3.89,0,0,0,3.5,2.11,21.42,21.42,0,0,0,4.53-.08c1.71-.32,2.18-1.29,3.59-.18,1.12.89,1.81,2.8,3.64,1.85.9,1.52-1,3.23-1.63,4.49a6,6,0,0,0,.14,5,12.43,12.43,0,0,1,.64,1.91l-25.41-8a39.88,39.88,0,0,1-2.13,7.12c-3,7.33-8.2,17.31-15.62,23.2-4,3.18-8.18,4.78-12.44,4.78a18.3,18.3,0,0,1-7-1.43,19.06,19.06,0,0,1-4.3-2.47c-4-3.07-6.4-7.69-7.09-13.6-1.1-9.41,2.28-20.12,5.31-27.46q.69-1.64,1.53-3.21a56.85,56.85,0,0,1,7-9.94,2.78,2.78,0,0,1-.23-.71c-1.09-.34-1.67-1.15-2.8-1.43s-1.8,0-2.86-.38-1.75-1.38-2.81-1.51a9.3,9.3,0,0,0-2.65.71,17.14,17.14,0,0,1-5.46.53c-2.82-.21-3-1.37-2.21-3.81l-.19-.91c1.74-2.51,0-3.18-1.81-4.38.25-2,3.06-2.81,2.62-5.24-2-.65-5.81,4.53-6.88,1.57-.71-2,2.26-6.11,3.64-7.25s5.77-2.7,7.57-2.45a2.9,2.9,0,0,1,2.63,2.42c.23,1.45-.84,2.48-1.07,4,1.84.06,2-2.27,2.22-3.47.39-2,1.39-1.58,2.77-2.74s1.8-2.49,3.28-3.44c1.15-.74,2.46-1.49,3.68-2.13,1.39-.73,2.62-.3,4-.75,2.05-.69.31-3.43,2.83-2.59.9.3.29.74,1.57.79a17.58,17.58,0,0,0,2.21-.28c2.71-.34,1-1.07.27-2.66-1-2,.95-1.2,2.49-1,1.13.1,1-.31,1.77.57s0,1.4,1.23,1.68c2.33.54,1.35-2.21,1-3.11-.54-1.56-.52-2.53-2.37-3.08a3.09,3.09,0,0,0,.46-2c-1.63-.21-1.6-1.42-2.67-2.19-1.79-1.29-1.91.44-3,1.34s-2.71.3-3.7,1.54-.72,2.57-3,1.55a8.08,8.08,0,0,0,.93-2.91,10.82,10.82,0,0,1-1.81-1c.62-2.35,3.28-1.86,5.11-1.61,2.05.27,3.23-1.57,5.09-1.44s2.21,3.11,4.66,2.1c1.4-.57,1-1.24.8-2.2a11.9,11.9,0,0,0-.6-1.18.31.31,0,0,1,0-.08c1.66.11,3.32.3,5,.54a15.24,15.24,0,0,0,.64,2.9c.14.52.55.95.63,1.5s-.65,1.16-.05,1.73c.94.87,5.12-2.08,6-2.49l.09,0,2.17-4.84c-.49-.14-1-.3-1.45-.43a67.07,67.07,0,0,0-45.74,4.07,8.14,8.14,0,0,1,3.16,5.9c.49,5.83-5,13.28-14,16.26a52.21,52.21,0,0,1-3.31,5.73,4.66,4.66,0,0,0,.34,2.88c.73,2,.82,3.25,3,4.13,2,.81,2.65,2,3,4.24,1.53.77,2.44,1.3,2.17,3.15.6.58,1.58,2.19,2.27,2.59,1,.56,3.2-.49,3.9,1,.87,1.8-1.79,4.54-3.68,6.48l-32.82-10.29c-.2.65-.39,1.3-.57,1.94l-.13,0a71.67,71.67,0,0,0-2.15,13c0,.1,0,.2,0,.3,0,.55-.07,1.11-.09,1.66s0,.88,0,1.31c0,.79,0,1.58,0,2.36,0,.27,0,.54,0,.82,0,1,.08,1.95.15,2.91,0,.16,0,.31,0,.47.08,1,.19,2,.32,3.06l.09.63c.06.45.11.9.18,1.35h0s0,.08,0,.12c1-.09,2.1-.16,3.21-.16,7.73,0,15.93,5,15.93,14.29,0,4.37-3.19,7.65-5.93,10.3l-.42.4-.41.39c-.43.42-.9.88-1.05,1.07l-.15.19-.11.14-.2.19.64.9.38.55c1.14,1.39,1.88,2.4,3,3.83.69.83,1.4,1.64,2.13,2.44.41.44.82.89,1.24,1.33l0,0a73.71,73.71,0,0,0,8.33,7.55,46.73,46.73,0,0,0,7.9,4.79,67.69,67.69,0,0,0,34,8.12c.91,0,1.84,0,2.78,0a69.53,69.53,0,0,0,10.72-1.79l1.17-.29.18,0a67.65,67.65,0,0,0,30.95-17.69l.94-.94.59-.62a64.56,64.56,0,0,0,14.68-24.7h0c.43-1.3.84-2.62,1.2-4A67.35,67.35,0,0,0,495.88,79.4Zm-71.2,92.15a34.09,34.09,0,0,0,5.79,7,33.51,33.51,0,0,0,3.27,2.68c.45.32.9.63,1.36.93a33.88,33.88,0,0,0,10.62,4.54,36.37,36.37,0,0,0,13.11.51,38.23,38.23,0,0,0,12.56-4.07l.05.09a31.31,31.31,0,0,1-12.46,5,32.63,32.63,0,0,1-13.45-.72,34.55,34.55,0,0,1-10.48-4.72c-.55-.36-1.09-.74-1.61-1.13a36.23,36.23,0,0,1-3-2.56,34.83,34.83,0,0,1-5.86-7.45Zm-6.83,6.16a0,0,0,0,1,.06,0A57,57,0,0,0,431.54,188l1.13.59c.46.23.92.47,1.39.69a53.42,53.42,0,0,0,13.49,4.51,52,52,0,0,0,33.37-4.93s.05,0,.07,0a.07.07,0,0,1,0,.07,52.69,52.69,0,0,1-16.28,5.65,51.93,51.93,0,0,1-17.28,0,49.45,49.45,0,0,1-16.36-5.71,47.19,47.19,0,0,1-13.21-11.13A0,0,0,0,1,417.85,177.71Z" transform="translate(-5.81 -13.54)"/><path class="cls-1" d="M475,149.53a35.23,35.23,0,0,0,2-6.69c1.11-5.68,1.23-12.14,1.38-19.73.05-2.44.1-5,.19-7.73-.64,3.71-1.17,7.15-1.65,10.35h0c-.9,5.84-1.71,11.19-2.93,16.16a60.35,60.35,0,0,1-2.77,8.69c-2.69,6.51-6.95,15.43-12.08,21.39.61-.39,1.23-.82,1.84-1.3C466.07,166.61,471.06,159.1,475,149.53Z" transform="translate(-5.81 -13.54)"/><path class="cls-1" d="M452.27,164.48a196.13,196.13,0,0,0,8.48-18.22c.77-1.86,1.48-3.75,2.16-5.68.23-.64.45-1.29.67-1.94,1.57-4.68,3-9.7,4.69-15.52.6-2.09,1.22-4.26,1.88-6.52-1.13,2.07-2.23,4.05-3.28,6-3,5.43-5.57,10.11-7.8,14.65-.12.23-.23.46-.34.69-1,2.12-2,4.21-2.86,6.34-2.65,6.41-6.16,15.5-7.79,22.4-.33,1.4-.54,2.52-.68,3.41a17.35,17.35,0,0,0-.19,2.07,28,28,0,0,0,3.24-4.5C451.05,166.65,451.66,165.59,452.27,164.48Z" transform="translate(-5.81 -13.54)"/><path class="cls-1" d="M467.21,143.87c-.54,1.47-1.09,2.92-1.69,4.36-.49,1.2-1,2.49-1.61,3.82-1.86,4.34-4.09,9.22-6.39,13.56a86.33,86.33,0,0,0,8-14.85c.31-.71.62-1.42.92-2.15.48-1.16.89-2.34,1.28-3.54q.75-2.3,1.33-4.72c.42-1.73.79-3.52,1.13-5.39q-.82,2.68-1.66,5.22C468.09,141.43,467.65,142.65,467.21,143.87Z" transform="translate(-5.81 -13.54)"/><path class="cls-1" d="M453.37,137.14l.72-1.48c1-2,2-4,3.08-6.07-1.37,2-2.61,3.94-3.73,5.86-.32.54-.63,1.08-.92,1.61a51,51,0,0,0-2.33,4.84,91.74,91.74,0,0,0-5.68,18.3c1.88-6.13,4.49-12.85,6.59-17.92C451.81,140.54,452.57,138.84,453.37,137.14Z" transform="translate(-5.81 -13.54)"/><path class="cls-1" d="M438.88,163.64c.56-7.85,3.84-17.19,6.54-23.71a54.67,54.67,0,0,1,3-6.05c1.34-2.39,2.84-4.75,4.49-7.15,1.86-2.73,3.9-5.51,6.05-8.44,1.91-2.6,4-5.4,6.11-8.46-1.85,2-3.63,3.83-5.32,5.59-3.42,3.57-6.51,6.79-9.14,9.94a52.05,52.05,0,0,0-5.36,7.52,32.64,32.64,0,0,0-1.78,3.61c-3.95,9.57-5.71,18.41-5,24.89C438.59,162.18,438.72,162.92,438.88,163.64Z" transform="translate(-5.81 -13.54)"/><path class="cls-2" d="M478.63,84.9q2.58-3.8,5.11-8.07c.08-.14.17-.27.25-.42L485.42,74l.68-1.16,7.27-12.41-3.61,13.92-.37,1.42-.68,2.62-.15.62c-.83,3.24-1.52,6.38-2.09,9.42A5.16,5.16,0,0,0,491.6,85l1.15-3,1.39-3.67L512,31.45c1.49-3.92-3.17-7.12-7.07-7.11a4.39,4.39,0,0,0-4.29,2.42L480.36,72.11l-1.35,3-1.77,4C476.33,81.13,477.08,83.22,478.63,84.9Zm23.55-53a2.75,2.75,0,0,1,1.48-1.48,2.89,2.89,0,0,1,1-.21,2.76,2.76,0,0,1,2.53,1.69h0a2.75,2.75,0,0,1-1.48,3.58,2.89,2.89,0,0,1-1.05.21,2.81,2.81,0,0,1-1-.21A2.72,2.72,0,0,1,502.18,34h0A2.73,2.73,0,0,1,502.18,31.91Z" transform="translate(-5.81 -13.54)"/><path class="cls-2" d="M484.8,89.27c.06-.33.11-.65.17-1s.09-.49.14-.73l.12-.57c.19-1,.39-2,.6-3,.34-1.55.71-3.14,1.11-4.75.08-.31.15-.62.23-.93l.09-.35.75-2.88,1.2-4.63-2.39,4.07-1.54,2.62-.13.23-.54.9c-.86,1.43-1.71,2.81-2.58,4.16q-.82,1.28-1.65,2.52l-.33.49-.31.46-.57.82-.56.81a165.29,165.29,0,0,1-11.45,14.49l-.49-.2-.9-.37-.09,0a1.11,1.11,0,0,0-1.38.63,1.13,1.13,0,0,0,0,.9,1.19,1.19,0,0,0,.59.58l.17.07.49.2c-3,3.3-5.83,6.29-8.48,9.06-3.35,3.48-6.38,6.65-9,9.76a54.09,54.09,0,0,0-6.4,9.1,35.24,35.24,0,0,0-1.6,3.34c-3,7.16-6.27,17.62-5.21,26.71.59,5.08,2.47,9,5.59,11.83l.18.15a15.26,15.26,0,0,0,2,1.47q.45.28.93.54c.28.16.58.31.88.45s.59.28.9.41.62.22.93.33.61.22.91.31.73.2,1.09.28A15.38,15.38,0,0,0,451,178c.25,0,.49,0,.74,0,3.9,0,7.74-1.49,11.49-4.46,7.16-5.7,12.2-15.43,15.16-22.6a38.13,38.13,0,0,0,2.09-7c1.24-6.06,1.38-12.81,1.53-20.76.07-3.82.15-8,.38-12.39l.49.2.17.07a1.09,1.09,0,0,0,.83,0,1.16,1.16,0,0,0,.65-.62A1.12,1.12,0,0,0,484,109l-.08,0-.9-.38-.49-.2a167.12,167.12,0,0,1,2.09-18.15Zm-3.36,7.64c-.06.45-.11.91-.17,1.35q-.37,3.28-.63,6.37c-.08,1-.15,2-.21,2.9l-.37-.15-.12,0-.82-.34-.15-.06-.32-.13c.09-.45.18-.9.28-1.36s.15-.68.22-1c.53-2.43,1.12-5,1.79-7.57.26-1,.54-2.07.83-3.13l.24-.88c0,.11,0,.21-.05.32C481.77,94.43,481.6,95.68,481.44,96.91Zm-28,78.78c-.39.05-.78.09-1.17.11q.51-.27,1-.6a16.3,16.3,0,0,0,1.9-1.41,26.56,26.56,0,0,0,2.39-2.37c5.16-5.8,9.48-14.85,12.19-21.41a57.33,57.33,0,0,0,2.73-8.56c1.17-4.79,2-10,2.87-15.95.75-4.89,1.58-10.35,2.78-16.45l.47.2.16.06.79.32.18.08.49.2c-.26,4.77-.34,9.18-.42,13.23h0c-.15,7.74-.28,14.31-1.44,20.15a36.24,36.24,0,0,1-2,6.81c-2.86,6.94-7.71,16.34-14.5,21.74a19,19,0,0,1-6,3.3A14.49,14.49,0,0,1,453.48,175.69Zm-9.71-43.27a52.1,52.1,0,0,1,5.76-8.13c2.64-3.15,5.72-6.36,9.12-9.91,2.81-2.92,5.86-6.11,9-9.67l.49.21.19.07.79.33.15.06.47.2c-3.45,5.16-6.71,9.61-9.64,13.61-2.26,3.08-4.33,5.91-6.2,8.64-1.5,2.21-2.86,4.35-4.08,6.5a54.34,54.34,0,0,0-3.05,6.17c-2.72,6.57-6,16-6.48,23.78a26.52,26.52,0,0,0,0,3.35,16.93,16.93,0,0,0,.32,2.28c.09.41.19.8.31,1.17a12.06,12.06,0,0,1-.77-.94,14.2,14.2,0,0,1-1.31-2,18.84,18.84,0,0,1-1.9-6.54c-1-8.63,2.2-18.7,5.07-25.64A35.22,35.22,0,0,1,443.77,132.42Zm27.39-31.69q2-2.37,4-5l.83-1.08c.76-1,1.52-2,2.28-3l.19-.26-.44.79c-.55,1-1.09,1.89-1.63,2.8-1.38,2.34-2.74,4.54-4.08,6.63l-.56.88-.75,1.15-.32-.13-.15-.07-.82-.33-.12,0-.37-.16C469.9,102.21,470.52,101.47,471.16,100.73Zm3.67,14.69c-.48,2.83-.9,5.48-1.28,8-.09.57-.18,1.15-.26,1.71v.08c-.9,5.85-1.68,10.93-2.8,15.6a56.91,56.91,0,0,1-2.66,8.38C465.16,155.6,461,164.42,456,170a21.36,21.36,0,0,1-2.53,2.46A11.71,11.71,0,0,1,451,174a4.25,4.25,0,0,1-.49.21c-.19.08-.38.14-.57.2a2.73,2.73,0,0,0,.23-.25c.17-.18.34-.36.51-.56a26.08,26.08,0,0,0,1.68-2.24c.39-.57.79-1.18,1.21-1.86A133.23,133.23,0,0,0,461,155c1.17-2.6,2.24-5.11,3.15-7.33.72-1.74,1.39-3.49,2-5.28.31-.87.62-1.75.92-2.65,1.57-4.71,3-9.75,4.7-15.58l.3-1.05c.7-2.45,1.45-5,2.26-7.79.4-1.36.82-2.75,1.25-4.18C475.32,112.6,475.07,114,474.83,115.42Zm-32.34,49c.41-7.44,3.66-16.65,6.31-23.07A56,56,0,0,1,452,135c.76-1.32,1.57-2.64,2.45-4,2.17-3.31,4.67-6.73,7.47-10.55.34-.46.69-.93,1-1.41,1.53-2.08,3.1-4.25,4.72-6.54.82-1.15,1.64-2.34,2.48-3.56-.7,1.31-1.38,2.59-2.05,3.82-1.36,2.51-2.65,4.86-3.87,7.08-.18.32-.36.64-.53,1-3.14,5.68-5.81,10.55-8.14,15.31l-.21.44c-1,2.09-2,4.17-2.84,6.3-2.69,6.52-6.26,15.8-8,23-.18.76-.33,1.48-.46,2.16-.19,1-.32,1.94-.39,2.77,0,.26,0,.52,0,.76s0,.2,0,.29c-.08-.15-.16-.31-.23-.47a4.2,4.2,0,0,1-.22-.53,11.57,11.57,0,0,1-.62-2.88A21.17,21.17,0,0,1,442.49,164.4Zm27.19-40.78c-1.66,5.78-3.1,10.79-4.67,15.46-.25.75-.5,1.5-.76,2.23-.67,1.88-1.36,3.71-2.11,5.53-2.08,5-4.94,11.56-7.87,17.1-.85,1.59-1.7,3.11-2.54,4.48a28.71,28.71,0,0,1-3.49,4.8l-.46.44a4,4,0,0,1-.56.43,2.06,2.06,0,0,1-.52.24.65.65,0,0,1-.4,0h0l-.08,0A.87.87,0,0,1,446,174a2,2,0,0,1-.19-.54,4,4,0,0,1-.09-.71,4.57,4.57,0,0,1,0-.65c0-.32,0-.7.06-1.13a38.25,38.25,0,0,1,.85-4.69c1.66-7,5.19-16.17,7.86-22.64.86-2.08,1.8-4.13,2.79-6.19.12-.24.23-.48.35-.71,2.27-4.64,4.88-9.39,7.94-14.93,2.44-4.43,5.09-9.23,8-14.72l.93.38c-1.83,5.91-3.34,11.16-4.74,16Zm4.89-18.51.42-.8,1.23-2.4-.82,2.55c-.09.3-.19.59-.28.88Z" transform="translate(-5.81 -13.54)"/></svg>